<svg width="48" height="61" viewBox="0 0 48 61" fill="none" xmlns="http://www.w3.org/2000/svg">
<path d="M25.8391 19.8358C23.2662 19.8358 21.1637 17.7056 21.1637 15.1327C21.1637 13.8927 21.6563 12.7035 22.5331 11.8267C23.4099 10.9499 24.5991 10.4574 25.8391 10.4574C28.4396 10.4574 30.5421 12.5599 30.5421 15.1327C30.5421 17.7056 28.4396 19.8358 25.8391 19.8358ZM17.4289 52.3698L1.0236 49.1053L1.96421 44.4022L13.4452 46.7538L17.1799 27.7756L12.9749 29.4355V37.3477H8.29949V26.3924L20.4721 21.219L22.3256 20.9977C23.9855 20.9977 25.3688 21.9383 26.2817 23.3492L28.6609 27.084C30.5421 30.4314 34.2769 32.7 38.7309 32.7V37.3477C33.5853 37.3477 28.8822 35.0515 25.8391 31.538L24.4558 38.5649L29.3525 43.2403V60.8629H24.6771V46.7538L19.7528 42.0784L17.4289 52.3698ZM47.0304 60.8629H41.4974V5.53299H5.53299V41.8017L0 40.6398V0H47.0304V60.8629ZM5.53299 60.8629H0V51.9548L5.53299 53.1167V60.8629Z" fill="white"/>
</svg>
