<svg width="34" height="34" viewBox="0 0 34 34" fill="none" xmlns="http://www.w3.org/2000/svg">
<g clip-path="url(#clip0_640_1567)">
<path d="M31.5974 33.2747C31.5145 33.4895 31.3681 33.6739 31.1778 33.8035C30.9875 33.9331 30.7623 34.0016 30.532 34C30.396 34.0227 30.26 34.0227 30.124 34L17 28.4693L3.85336 34C3.71466 34.0543 3.56662 34.0807 3.41771 34.0777C3.2688 34.0747 3.12194 34.0424 2.98553 33.9826C2.84912 33.9228 2.72583 33.8367 2.62271 33.7292C2.51959 33.6218 2.43866 33.495 2.38456 33.3563L2.38003 33.3427C2.30256 33.1961 2.25818 33.0344 2.25001 32.8688C2.24185 32.7033 2.27011 32.5379 2.33278 32.3845C2.39546 32.231 2.49104 32.0932 2.61278 31.9807C2.73451 31.8682 2.87945 31.7837 3.03736 31.7333L14.0307 27.2L3.03736 22.6667C2.88819 22.6213 2.74997 22.5457 2.63136 22.4445C2.51276 22.3433 2.4163 22.2187 2.34804 22.0785C2.27978 21.9384 2.24117 21.7856 2.23464 21.6298C2.2281 21.474 2.25378 21.3186 2.31007 21.1732C2.36635 21.0278 2.45203 20.8956 2.56174 20.7848C2.67146 20.674 2.80285 20.5871 2.94771 20.5294C3.09256 20.4717 3.24775 20.4445 3.40358 20.4496C3.55942 20.4546 3.71253 20.4918 3.85336 20.5587L17 26.0213L30.1467 20.5587C30.2875 20.4918 30.4406 20.4546 30.5965 20.4496C30.7523 20.4445 30.9075 20.4717 31.0523 20.5294C31.1972 20.5871 31.3286 20.674 31.4383 20.7848C31.548 20.8956 31.6337 21.0278 31.69 21.1732C31.7463 21.3186 31.7719 21.474 31.7654 21.6298C31.7589 21.7856 31.7203 21.9384 31.652 22.0785C31.5837 22.2187 31.4873 22.3433 31.3687 22.4445C31.2501 22.5457 31.1119 22.6213 30.9627 22.6667L19.9467 27.2L30.94 31.7333C31.0889 31.7853 31.2254 31.8678 31.3406 31.9755C31.4558 32.0832 31.5473 32.2137 31.6091 32.3588C31.671 32.5039 31.7019 32.6603 31.6999 32.818C31.6979 32.9757 31.6629 33.1312 31.5974 33.2747ZM27.2 9.588V10.608C27.1952 11.0907 27.0363 11.5592 26.7467 11.9453C25.4806 13.3468 24.1172 14.6571 22.6667 15.8667V18.496C22.6683 18.7262 22.5998 18.9515 22.4702 19.1418C22.3406 19.3321 22.1562 19.4785 21.9414 19.5613L17.0454 21.5333H16.8867L11.968 19.5613C11.7702 19.4646 11.6048 19.3124 11.4921 19.1232C11.3794 18.934 11.3242 18.716 11.3334 18.496V15.8667C9.86645 14.6597 8.48781 13.3492 7.20802 11.9453C6.9345 11.5537 6.7917 11.0856 6.80002 10.608V9.588C6.98338 7.15156 8.01656 4.85689 9.71922 3.10452C11.4219 1.35215 13.6859 0.253378 16.116 0L17.816 0C20.26 0.233995 22.5426 1.32478 24.2599 3.07943C25.9772 4.83407 27.0186 7.13952 27.2 9.588ZM13.6 9.06667C13.6 8.46551 13.3612 7.88897 12.9361 7.46389C12.5111 7.03881 11.9345 6.8 11.3334 6.8C10.7322 6.8 10.1557 7.03881 9.73058 7.46389C9.3055 7.88897 9.06669 8.46551 9.06669 9.06667C9.06669 9.66782 9.3055 10.2444 9.73058 10.6694C10.1557 11.0945 10.7322 11.3333 11.3334 11.3333C11.9345 11.3333 12.5111 11.0945 12.9361 10.6694C13.3612 10.2444 13.6 9.66782 13.6 9.06667ZM15.8667 15.8667C15.8667 15.5661 15.7473 15.2778 15.5347 15.0653C15.3222 14.8527 15.0339 14.7333 14.7334 14.7333C14.4328 14.7333 14.1445 14.8527 13.932 15.0653C13.7194 15.2778 13.6 15.5661 13.6 15.8667V17C13.6 17.3006 13.7194 17.5888 13.932 17.8014C14.1445 18.0139 14.4328 18.1333 14.7334 18.1333C15.0339 18.1333 15.3222 18.0139 15.5347 17.8014C15.7473 17.5888 15.8667 17.3006 15.8667 17V15.8667ZM20.4 15.8667C20.4 15.5661 20.2806 15.2778 20.0681 15.0653C19.8555 14.8527 19.5673 14.7333 19.2667 14.7333C18.9661 14.7333 18.6778 14.8527 18.4653 15.0653C18.2528 15.2778 18.1334 15.5661 18.1334 15.8667V17C18.1334 17.3006 18.2528 17.5888 18.4653 17.8014C18.6778 18.0139 18.9661 18.1333 19.2667 18.1333C19.5673 18.1333 19.8555 18.0139 20.0681 17.8014C20.2806 17.5888 20.4 17.3006 20.4 17V15.8667ZM24.9334 9.06667C24.9334 8.46551 24.6945 7.88897 24.2695 7.46389C23.8444 7.03881 23.2678 6.8 22.6667 6.8C22.0655 6.8 21.489 7.03881 21.0639 7.46389C20.6388 7.88897 20.4 8.46551 20.4 9.06667C20.4 9.66782 20.6388 10.2444 21.0639 10.6694C21.489 11.0945 22.0655 11.3333 22.6667 11.3333C23.2678 11.3333 23.8444 11.0945 24.2695 10.6694C24.6945 10.2444 24.9334 9.66782 24.9334 9.06667Z" fill="#FF0000"/>
</g>
<defs>
<clipPath id="clip0_640_1567">
<rect width="34" height="34" fill="white"/>
</clipPath>
</defs>
</svg>
