<svg width="44" height="44" viewBox="0 0 44 44" fill="none" xmlns="http://www.w3.org/2000/svg">
<path d="M19.1236 17.9044C19.3647 17.9346 19.584 18.0593 19.7332 18.2512C19.8824 18.443 19.9493 18.6862 19.9192 18.9274L19.0906 25.5622C19.0604 25.8035 18.9357 26.0229 18.7437 26.1723C18.5518 26.3216 18.3084 26.3885 18.0671 26.3583C17.8258 26.3282 17.6064 26.2034 17.4571 26.0115C17.3078 25.8196 17.2408 25.5762 17.271 25.3349L18.1006 18.7001C18.1308 18.4589 18.2555 18.2396 18.4474 18.0904C18.6392 17.9412 18.8824 17.8743 19.1236 17.9044Z" fill="#218AC5"/>
<path fill-rule="evenodd" clip-rule="evenodd" d="M8.25 5.5C7.52065 5.5 6.82118 5.78973 6.30546 6.30546C5.78973 6.82118 5.5 7.52065 5.5 8.25V35.75C5.5 36.4793 5.78973 37.1788 6.30546 37.6945C6.82118 38.2103 7.52065 38.5 8.25 38.5H35.75C36.4793 38.5 37.1788 38.2103 37.6945 37.6945C38.2103 37.1788 38.5 36.4793 38.5 35.75V8.25C38.5 7.52065 38.2103 6.82118 37.6945 6.30546C37.1788 5.78973 36.4793 5.5 35.75 5.5H8.25ZM15.9995 18.0235C16.1783 16.5055 17.2755 15.2295 18.7816 14.9692C21.1191 14.5658 22.9891 14.5686 25.2358 14.9618C26.7346 15.224 27.8208 16.4973 27.9996 18.0079L29.3333 29.3333H14.6667L15.9995 18.0235ZM13.75 33V31.1667H30.25V33H13.75ZM11.9579 22.9167C11.9031 22.3068 11.9031 21.6932 11.9579 21.0833H9.16667V22.9167H11.9579ZM12.8434 17.7714C13.1004 17.216 13.4076 16.6852 13.761 16.1856L11.3447 14.7895L10.428 16.3772L12.8434 17.7714ZM16.1847 13.761C16.6824 13.4099 17.2132 13.101 17.7723 12.8434L16.3772 10.428L14.7895 11.3447L16.1847 13.761ZM21.0833 11.9579C21.6932 11.9031 22.3068 11.9031 22.9167 11.9579V9.16667H21.0833V11.9579ZM26.2286 12.8434C26.7839 13.1007 27.3147 13.4078 27.8144 13.761L29.2105 11.3447L27.6228 10.428L26.2286 12.8434ZM30.239 16.1847C30.5901 16.6824 30.899 17.2132 31.1566 17.7723L33.572 16.3772L32.6553 14.7895L30.239 16.1847ZM32.0421 21.0833C32.0969 21.6932 32.0969 22.3068 32.0421 22.9167H34.8333V21.0833H32.0421Z" fill="#218AC5"/>
</svg>
