<svg width="54" height="54" viewBox="0 0 54 54" fill="none" xmlns="http://www.w3.org/2000/svg">
<path d="M49.913 26.631L28.1917 4.92549C28.0353 4.76879 27.8496 4.64447 27.6451 4.55964C27.4406 4.47481 27.2213 4.43115 27 4.43115C26.7786 4.43115 26.5593 4.47481 26.3548 4.55964C26.1503 4.64447 25.9646 4.76879 25.8082 4.92549L4.08687 26.631C3.45405 27.2638 3.09546 28.1233 3.09546 29.0198C3.09546 30.8814 4.60894 32.3948 6.47046 32.3948H8.75913V47.8829C8.75913 48.8163 9.51323 49.5704 10.4466 49.5704H23.625V37.7579H29.5312V49.5704H43.5533C44.4867 49.5704 45.2408 48.8163 45.2408 47.8829V32.3948H47.5294C48.4259 32.3948 49.2855 32.0415 49.9183 31.4034C51.2314 30.0851 51.2314 27.9493 49.913 26.631V26.631Z" fill="white"/>
</svg>
