<svg width="36" height="36" viewBox="0 0 36 36" fill="none" xmlns="http://www.w3.org/2000/svg">
<path d="M29.2499 13.5C28.0904 13.5309 26.9658 13.1011 26.1224 12.3048C25.279 11.5084 24.7855 10.4103 24.7499 9.25089C24.7709 8.4231 25.0255 7.61811 25.4845 6.92889L28.3162 2.71577C28.4249 2.57091 28.5659 2.45335 28.728 2.37238C28.8901 2.29142 29.0687 2.24927 29.2499 2.24927C29.4311 2.24927 29.6097 2.29142 29.7718 2.37238C29.9339 2.45335 30.0749 2.57091 30.1837 2.71577L32.9793 6.87377C33.4571 7.57667 33.7244 8.40133 33.7499 9.25089C33.7143 10.4103 33.2208 11.5084 32.3774 12.3048C31.534 13.1011 30.4095 13.5309 29.2499 13.5ZM29.2499 5.35839L27.3869 8.12927C27.1541 8.45885 27.0199 8.84787 26.9999 9.25089C27.0652 9.80177 27.3303 10.3095 27.745 10.678C28.1597 11.0464 28.6952 11.25 29.2499 11.25C29.8046 11.25 30.3401 11.0464 30.7548 10.678C31.1695 10.3095 31.4346 9.80177 31.4999 9.25089C31.4747 8.82603 31.3283 8.41728 31.078 8.07302L29.2499 5.35839ZM26.4374 33.75H9.5624C7.75009 33.752 6.00171 33.0804 4.65667 31.8658C3.31163 30.6511 2.46589 28.98 2.28364 27.1769C2.1014 25.3738 2.59564 23.5673 3.67042 22.108C4.74521 20.6488 6.32385 19.641 8.0999 19.2803C8.57928 17.0098 9.82452 14.9731 11.6269 13.5115C13.4293 12.0499 15.6794 11.2522 17.9999 11.2522C20.3204 11.2522 22.5705 12.0499 24.3729 13.5115C26.1753 14.9731 27.4205 17.0098 27.8999 19.2803C29.676 19.641 31.2546 20.6488 32.3294 22.108C33.4042 23.5673 33.8984 25.3738 33.7162 27.1769C33.5339 28.98 32.6882 30.6511 31.3431 31.8658C29.9981 33.0804 28.2497 33.752 26.4374 33.75ZM17.9999 13.5C16.0792 13.5018 14.2253 14.2055 12.7872 15.4787C11.3491 16.7519 10.4259 18.5068 10.1913 20.4131L10.0788 21.3266L9.1619 21.3986C7.85606 21.4981 6.63968 22.1001 5.76869 23.0781C4.8977 24.0561 4.44 25.3338 4.49188 26.6424C4.54376 27.951 5.10119 29.1885 6.04688 30.0945C6.99256 31.0004 8.25279 31.5043 9.5624 31.5H26.4374C27.747 31.5043 29.0072 31.0004 29.9529 30.0945C30.8986 29.1885 31.456 27.951 31.5079 26.6424C31.5598 25.3338 31.1021 24.0561 30.2311 23.0781C29.3601 22.1001 28.1437 21.4981 26.8379 21.3986L25.921 21.3266L25.8097 20.4131C25.5746 18.5068 24.651 16.752 23.2128 15.4789C21.7745 14.2058 19.9207 13.502 17.9999 13.5Z" fill="black"/>
</svg>
