<svg width="50" height="50" viewBox="0 0 50 50" fill="none" xmlns="http://www.w3.org/2000/svg">
<path d="M36.3516 38.0952L37.7578 36.6983C44.2641 36.9108 44.3641 36.6827 44.65 36.0139L46.4375 31.6624L46.5703 31.2499L46.425 30.8889C46.3484 30.6983 46.1125 30.1296 42.05 26.2561V24.2186C46.7375 19.703 46.6375 19.4718 46.3703 18.8108L44.5906 14.4139C44.3234 13.7546 44.2219 13.4968 37.7625 13.6733L36.3563 12.2202C36.5014 10.0797 36.4276 7.93003 36.1359 5.80457L35.9547 5.39363L31.3078 3.36238C30.6234 3.04988 30.3828 2.93738 25.9953 7.71551L24.0234 7.68582C19.5063 2.86394 19.2922 2.95144 18.6156 3.22488L14.2953 4.97175C13.6188 5.24519 13.3797 5.34207 13.6422 11.9046L12.2469 13.2952C5.74375 13.0827 5.64375 13.3139 5.36094 13.9796L3.57031 18.3327L3.42969 18.7499L3.57656 19.1124C3.65313 19.2999 3.87969 19.8624 7.95156 23.7405V25.7718C3.26406 30.2874 3.36563 30.5186 3.63438 31.1811L5.4125 35.5827C5.68438 36.2561 5.78125 36.4952 12.2391 36.3264L13.6453 37.7874C13.4996 39.9245 13.5713 42.071 13.8594 44.1936L14.0406 44.6077L18.7172 46.6514C19.3969 46.9358 19.6328 47.0374 24.0078 42.2764L25.9797 42.3014C30.5031 47.1296 30.7344 47.0358 31.3953 46.7686L35.7062 45.0264C36.3875 44.7561 36.625 44.6608 36.3516 38.0952ZM17.8234 27.9014C17.2782 26.4765 17.166 24.9223 17.5008 23.4338C17.8356 21.9454 18.6025 20.5889 19.7054 19.5347C20.8082 18.4805 22.1978 17.7754 23.6999 17.5081C25.202 17.2407 26.7495 17.4229 28.1484 18.0318C29.5473 18.6407 30.7352 19.6491 31.5631 20.9306C32.391 22.2122 32.8219 23.7096 32.8019 25.2352C32.7819 26.7607 32.3118 28.2464 31.4505 29.5057C30.5893 30.765 29.3753 31.742 27.9609 32.3139C26.0311 33.0686 23.881 33.028 21.981 32.201C20.0811 31.374 18.5862 29.8281 17.8234 27.9014Z" fill="white"/>
</svg>
